<?xml version="1.0" standalone="no"?><!DOCTYPE svg PUBLIC "-//W3C//DTD SVG 1.1//EN" "http://www.w3.org/Graphics/SVG/1.1/DTD/svg11.dtd"><svg t="1641865894455" class="icon" viewBox="0 0 1024 1024" version="1.1" xmlns="http://www.w3.org/2000/svg" p-id="2948" xmlns:xlink="http://www.w3.org/1999/xlink" width="200" height="200"><defs><style type="text/css"></style></defs><path d="M946.393212 1016.242424H77.575758A69.895758 69.895758 0 0 1 7.757576 946.424242V77.575758C7.757576 39.082667 39.098182 7.757576 77.575758 7.757576h868.848484a69.895758 69.895758 0 0 1 69.818182 69.818182v868.848484c0 38.493091-31.325091 69.818182-69.818182 69.818182zM518.454303 729.987879h2.56l1.210182 0.418909c32.73697 11.093333 67.754667 16.725333 104.060121 16.725333 67.242667 0 130.404848-19.456 177.834667-54.784 46.731636-34.84703 72.455758-80.942545 72.455757-129.799757 0-39.718788-16.911515-77.591273-48.919272-109.50594-31.371636-31.294061-76.194909-54.923636-126.215758-66.56l-5.228606-1.241212-0.698182-5.321697a184.925091 184.925091 0 0 0-60.291879-114.113939 181.822061 181.822061 0 0 0-121.111272-46.204121c-92.935758 0-171.054545 70.128485-181.713455 163.126303l-0.605091 5.228606-5.073454 1.380848c-47.848727 13.032727-88.746667 36.243394-118.272 67.165091-29.789091 31.185455-45.53697 67.847758-45.53697 106.046061 0 48.841697 25.724121 94.952727 72.440242 129.799757 47.414303 35.328 110.56097 54.768485 177.803637 54.768485 36.336485 0 71.354182-5.616485 104.091151-16.709818l1.210182-0.418909z m-6.469818-60.431515a146.432 146.432 0 0 1-104.215273-43.178667 146.447515 146.447515 0 0 1-43.178667-104.261818c0-39.315394 15.32897-76.334545 43.163152-104.199758A146.447515 146.447515 0 0 1 512 374.75297c22.838303 0 44.528485 4.980364 64.54303 14.801454l7.602425-7.602424c3.971879-3.971879 9.231515-6.144 14.816969-6.144 10.193455 0 18.711273 6.950788 20.697212 16.911515l10.022788 50.11394c1.241212 6.206061-0.325818 12.582788-4.344242 17.47006a20.992 20.992 0 0 1-20.44897 7.292121l-50.067394-10.007272c-7.757576-1.536-13.746424-6.981818-16.027151-14.537697a20.743758 20.743758 0 0 1 5.244121-20.992l0.186182-0.186182a105.394424 105.394424 0 0 0-137.495273 100.243394c0 58.073212 47.212606 105.316848 105.270303 105.316848 58.042182 0 105.270303-47.243636 105.270303-105.301333 0-6.268121-0.54303-12.520727-1.613576-18.587152l-1.629091-9.107394H656.942545l0.93091 6.671516c1.008485 6.966303 1.50497 14.041212 1.504969 21.02303 0 39.408485-15.344485 76.427636-43.178666 104.246303a146.338909 146.338909 0 0 1-104.215273 43.178667z" p-id="2949"></path><path d="M946.393212 1008.484848A62.138182 62.138182 0 0 0 1008.484848 946.424242V77.575758c0-34.226424-27.834182-62.060606-62.060606-62.060606h-868.848484C43.349333 15.515152 15.515152 43.349333 15.515152 77.575758v868.848484c0 34.226424 27.849697 62.060606 62.060606 62.060606h868.848484m-426.666666-270.739393c-33.559273 11.372606-69.414788 17.144242-106.589091 17.144242-68.887273 0-133.694061-20.014545-182.442667-56.32-48.717576-36.352-75.558788-84.666182-75.558788-136.021333 0-40.230788 16.477091-78.754909 47.678061-111.398788 30.502788-31.961212 72.641939-55.901091 121.856-69.306182 11.124364-96.907636 92.563394-169.999515 189.44-169.999515 46.56097 0 91.415273 17.097697 126.262303 48.174545a192.667152 192.667152 0 0 1 62.820848 118.892606c51.401697 11.962182 97.543758 36.336485 129.923879 68.639031 33.512727 33.404121 51.2 73.169455 51.2 114.998303 0 51.355152-26.841212 99.669333-75.558788 136.005818-48.795152 36.336485-113.586424 56.32-182.489212 56.32-37.143273 0-72.998788-5.740606-106.542545-17.128727m-7.757576-75.946667a138.658909 138.658909 0 0 0 98.722909-40.913455A138.674424 138.674424 0 0 0 651.636364 522.131394c0-6.593939-0.465455-13.296485-1.411879-19.93697h-26.934303c1.148121 6.516364 1.737697 13.218909 1.737697 19.93697 0 62.339879-50.703515 113.058909-113.027879 113.058909s-113.043394-50.734545-113.043394-113.058909c0-62.324364 50.71903-113.027879 113.043394-113.027879 16.104727 0 31.650909 3.320242 46.142061 9.836606l-8.610909 8.595394a13.125818 13.125818 0 0 0-3.320243 13.28097 13.063758 13.063758 0 0 0 10.131394 9.153939l50.098424 10.038303a13.032727 13.032727 0 0 0 12.908606-4.623515 13.203394 13.203394 0 0 0 2.730667-11.015757l-10.022788-50.11394a13.187879 13.187879 0 0 0-13.094788-10.705454 13.141333 13.141333 0 0 0-9.340121 3.878787l-11.605333 11.620849A137.278061 137.278061 0 0 0 512 382.510545a138.736485 138.736485 0 0 0-98.738424 40.89794A138.78303 138.78303 0 0 0 372.363636 522.131394c0 37.298424 14.522182 72.378182 40.89794 98.753939A138.736485 138.736485 0 0 0 512 661.798788m434.424242 362.201212h-868.848484c-42.759758 0-77.575758-34.800485-77.575758-77.575758V77.575758c0-42.775273 34.816-77.575758 77.575758-77.575758h868.848484a77.668848 77.668848 0 0 1 77.575758 77.575758v868.848484c0 42.775273-34.800485 77.575758-77.575758 77.575758zM517.15103 722.230303h5.12l2.435879 0.822303c31.930182 10.829576 66.094545 16.321939 101.562182 16.321939 65.582545 0 127.100121-18.91297 173.211151-53.263515 44.714667-33.326545 69.337212-77.218909 69.337213-123.562666 0-37.624242-16.135758-73.588364-46.654061-104.013576-30.363152-30.285576-73.852121-53.201455-122.492121-64.512l-10.488243-2.435879-1.380848-10.674424a177.18303 177.18303 0 0 0-57.762909-109.319758 174.08 174.08 0 0 0-115.944728-44.233697c-88.979394 0-163.793455 67.180606-174.002424 156.253091l-1.210182 10.441697-10.131394 2.761697c-46.498909 12.660364-86.171152 35.141818-114.71903 65.039515-28.392727 29.711515-43.380364 64.54303-43.380363 100.693334 0 46.343758 24.622545 90.220606 69.321696 123.578181 46.08 34.33503 107.582061 53.248 173.164607 53.248 35.483152 0 69.66303-5.492364 101.593212-16.321939l2.420363-0.822303zM512 677.313939a154.158545 154.158545 0 0 1-109.692121-45.459394 154.158545 154.158545 0 0 1-45.459394-109.723151 154.220606 154.220606 0 0 1 45.443879-109.692121 154.158545 154.158545 0 0 1 109.692121-45.443879c22.140121 0 43.256242 4.437333 62.913939 13.218909l3.754667-3.739151a28.547879 28.547879 0 0 1 20.309333-8.424728c13.948121 0 25.6 9.510788 28.299637 23.164121l10.038303 50.11394c1.706667 8.486788-0.465455 17.206303-5.957819 23.893333a28.718545 28.718545 0 0 1-28.020363 9.976243l-50.036364-10.007273a28.687515 28.687515 0 0 1-21.922909-19.90594c-1.908364-6.206061-1.598061-12.753455 0.651636-18.618181a97.621333 97.621333 0 0 0-117.527272 95.464727 97.636848 97.636848 0 0 0 97.512727 97.543758 97.636848 97.636848 0 0 0 96.007758-114.781091l-3.227152-18.214788h58.895515l1.908364 13.34303c1.039515 7.307636 1.551515 14.754909 1.551515 22.109091a154.08097 154.08097 0 0 1-45.443879 109.738667A154.065455 154.065455 0 0 1 512 677.313939z" p-id="2950"></path></svg>